<?xml version="1.0" encoding="UTF-8"?>
<!-- Generated by Pixelmator Pro 3.6.17 -->
<svg width="120" height="120" viewBox="0 0 120 120" xmlns="http://www.w3.org/2000/svg">
    <g id="Group">
        <path id="path1" fill="none" stroke="#000000" stroke-width="3" stroke-linecap="round" stroke-linejoin="round" d="M 21 99 L 99 99 L 99 21 L 21 21 Z"/>
        <path id="path2" fill="#000000" fill-rule="evenodd" stroke="#000000" stroke-width="3" stroke-linecap="round" stroke-linejoin="round" d="M 64.739128 81 L 37 81 L 37 54 L 53.260868 54 L 53.260868 66 L 64.739128 66 L 64.739128 81 Z"/>
        <path id="path3" fill="#000000" fill-rule="evenodd" stroke="#000000" stroke-width="3" stroke-linecap="round" stroke-linejoin="round" d="M 58 61 L 83 61 L 83 36 L 58 36 Z"/>
        <path id="path4" fill="none" stroke="#000000" stroke-width="3" stroke-linecap="round" stroke-linejoin="round" d="M 98 22 L 101 22 L 101 19 L 98 19 Z"/>
        <path id="-" fill="none" stroke="#000000" stroke-width="3" stroke-linecap="round" stroke-linejoin="round" d="M 98 101 L 101 101 L 101 98 L 98 98 Z"/>
        <path id="--3" fill="none" stroke="#000000" stroke-width="3" stroke-linecap="round" stroke-linejoin="round" d="M 19 22 L 22 22 L 22 19 L 19 19 Z"/>
        <path id="--2" fill="none" stroke="#000000" stroke-width="3" stroke-linecap="round" stroke-linejoin="round" d="M 19 101 L 22 101 L 22 98 L 19 98 Z"/>
    </g>
</svg>
